<svg version="1.2" xmlns="http://www.w3.org/2000/svg" viewBox="0 0 300 300" width="300" height="250">
	<path id="RIMAROK.com" class="s0" aria-label="RIMAROK.com"  d="m36.9 162h-7.6v-1.5l2.8-0.2v-21.5l-2.8-0.2v-1.5h10.5q2.7 0 4.5 0.8 1.8 0.8 2.8 2.3 1 1.5 1 3.7 0 2.2-1 3.6-1 1.5-2.8 2.3-1.8 0.7-4.3 0.7l-5.9 0.1v9.7l2.8 0.2zm12.6 0h-3.5l-5.3-12.3 2-0.1 4.8 10.8 2 0.1zm-15.4-23.2v10.1h5.5q3.3 0 4.9-1.4 1.5-1.4 1.5-3.6 0-2.4-1.5-3.7-1.6-1.4-4.7-1.4zm26.3 23.2h-7.7v-1.5l2.8-0.2v-21.5l-2.8-0.2v-1.5h7.7v1.5l-2.8 0.2v21.5l2.8 0.2zm10.3 0h-7.7v-1.5l2.8-0.2v-21.5l-2.8-0.2v-1.5h2.8 2.8l9.2 21.3h0.1l9.1-21.3h5.7v1.5l-2.8 0.2v21.5l2.8 0.2v1.5h-7.7v-1.5l2.9-0.2v-10.6-9.6h-0.1l-9.2 21.5h-1.5l-9.3-21.5-0.1 0.1 0.1 9.2v10.9l2.9 0.2zm29.8 0h-6.2v-1.5l1.9-0.1 8.8-23.3h1.9l8.8 23.3 1.8 0.1v1.5h-6.1v-1.5l2.2-0.1-2.1-5.7h-11.1l-2.1 5.7 2.2 0.1zm5.1-21.3l-4.6 12.3h9.9l-4.5-12.3-0.4-1h-0.1zm22.3 21.3h-7.6v-1.5l2.8-0.2v-21.5l-2.8-0.2v-1.5h10.5q2.6 0 4.5 0.8 1.8 0.8 2.8 2.3 0.9 1.5 0.9 3.7 0 2.2-1 3.6-1 1.5-2.8 2.3-1.8 0.7-4.2 0.7l-5.9 0.1v9.7l2.8 0.2zm12.6 0h-3.5l-5.4-12.3 2.1-0.1 4.8 10.8 2 0.1zm-15.4-23.2v10.1h5.5q3.3 0 4.8-1.4 1.6-1.4 1.6-3.6 0-2.4-1.6-3.7-1.5-1.4-4.6-1.4zm29.4 23.5q-2.3 0-4.2-0.9-1.9-0.9-3.3-2.5-1.4-1.7-2.1-4-0.8-2.4-0.8-5.2v-0.3q0-2.9 0.8-5.2 0.7-2.3 2.1-4 1.3-1.6 3.3-2.6 1.9-0.9 4.2-0.9 2.4 0 4.3 0.9 2 1 3.3 2.6 1.4 1.7 2.1 4 0.7 2.3 0.7 5.2v0.3q0 2.8-0.7 5.2-0.7 2.3-2.1 4-1.3 1.6-3.2 2.5-2 0.9-4.4 0.9zm0-1.8q2.7 0 4.6-1.3 1.8-1.4 2.8-3.8 1-2.4 1-5.7v-0.3q0-3.3-1-5.7-1-2.4-2.8-3.8-1.9-1.4-4.6-1.4-2.6 0-4.4 1.4-1.9 1.4-2.9 3.8-1 2.4-1 5.7v0.3q0 3.3 1 5.7 1 2.4 2.9 3.8 1.9 1.3 4.4 1.3zm32.8-21.7l-14.7 16.3-1-1.6 13.2-14.7v-0.1l-2.4-0.1v-1.5h7v1.5zm-11.6 23.2h-7.6v-1.5l2.8-0.2v-21.5l-2.8-0.2v-1.5h7.6v1.5l-2.8 0.2v21.5l2.8 0.2zm14.6 0h-7.2v-1.5l2.5-0.1v-0.1l-8.2-11.2 1.3-1.5 9.4 12.7 2.2 0.2zm5.9 0h-2.3v-2.8h2.3zm12.6 0.4q-2.3 0-4.1-1.2-1.7-1.1-2.8-3.2-0.9-2.1-0.9-4.9v-0.7q0-2.7 0.9-4.8 1-2 2.7-3.2 1.8-1.2 4.2-1.2 2.1 0 3.8 0.8 1.7 0.8 2.8 2.1l0.1 4.2h-1.8l-0.2-3.5q-0.9-0.9-2-1.4-1.2-0.5-2.7-0.5-1.7 0-3 1-1.3 1-2.1 2.7-0.7 1.7-0.7 3.8v0.7q0 2.3 0.7 4 0.7 1.7 2 2.6 1.3 1 3.1 1 2.1 0 3.5-1.1 1.4-1.1 1.6-3.2h1.9v0.1q-0.1 1.7-1 3.1-0.9 1.3-2.4 2.1-1.5 0.7-3.6 0.7zm18.9 0q-2.5 0-4.3-1.2-1.8-1.2-2.9-3.3-1-2.1-1-4.8v-0.6q0-2.7 1-4.8 1.1-2.1 2.9-3.3 1.8-1.2 4.3-1.2 2.5 0 4.3 1.2 1.9 1.2 2.9 3.3 1 2.1 1 4.8v0.6q0 2.7-1 4.8-1 2.1-2.9 3.3-1.8 1.2-4.3 1.2zm0-1.7q1.9 0 3.3-1 1.4-1 2.1-2.8 0.7-1.7 0.7-3.8v-0.6q0-2.1-0.7-3.8-0.7-1.8-2.1-2.8-1.4-1-3.3-1-1.9 0-3.3 1-1.4 1-2.1 2.8-0.7 1.7-0.7 3.8v0.6q0 2.1 0.7 3.9 0.7 1.7 2.1 2.7 1.4 1 3.3 1zm18.8 1.3h-7.6v-1.5l2.7-0.2v-15l-2.7-0.3v-1.5h4.6l0.1 3.2q0.9-1.7 2.4-2.6 1.5-0.9 3.6-0.9 2.1 0 3.5 1.1 1.4 1 2 3.2 0.8-2 2.4-3.2 1.6-1.1 3.8-1.1 2.9 0 4.5 2 1.7 1.9 1.7 6.1v9l2.8 0.2v1.5h-7.7v-1.5l2.8-0.2v-9.1q0-3.4-1.2-4.8-1.2-1.5-3.3-1.5-2.5 0-3.8 1.6-1.2 1.5-1.5 3.8v10l2.8 0.2v1.5h-7.7v-1.5l2.8-0.2v-9.1q0-3.4-1.2-4.8-1.2-1.4-3.4-1.4-2.2 0-3.5 1.2-1.2 1.2-1.7 3.1v11l2.8 0.2z"/>
</svg>