<?xml version="1.0" encoding="utf-8"?>
<!DOCTYPE svg PUBLIC "-//W3C//DTD SVG 1.0//EN"
"http://www.w3.org/TR/2000/CR-SVG-20001102/DTD/svg-20001102.dtd">
<svg xmlns="http://www.w3.org/2000/svg" width="658" height="636" viewBox="26.8 49.4 329 318">
<g fill="none" stroke="#b0925a" stroke-width="1">
<path stroke-width="3" d="M 343.923,173.484 311.441,104.422 245.697,60.300 95.573,80.162 37.954,229.855 148.811,356.488 303.895,319.228 343.923,173.484Z"/>
<path d="M 148.811,356.488 256.099,291.924 303.895,319.228"/>
<path d="M 311.441,104.422 256.099,291.924 118.482,134.091 311.441,104.422"/>
<path d="M 95.573,80.162 118.482,134.091 37.954,229.855"/>
<g stroke-dasharray="5,2">
<path d="M 303.895,319.228 298.235,310.984 292.575,302.740 286.915,294.497 281.254,286.253 275.594,278.009 269.934,269.766 264.273,261.522 258.613,253.279 252.953,245.035 249.524,240.041 242.955,232.501 236.387,224.960 229.819,217.420 223.250,209.879 216.682,202.339 210.114,194.799 203.545,187.258 196.977,179.718 190.409,172.178 183.840,164.637 177.272,157.097 170.704,149.557 165.733,143.851 172.648,136.626 179.562,129.402 186.476,122.178 193.390,114.953 200.305,107.729 207.219,100.504 214.133,93.280 221.047,86.056 227.962,78.831 234.876,71.607 241.790,64.383 245.697,60.300 252.252,67.852 258.806,75.405 265.360,82.957 271.915,90.510 278.469,98.062 285.024,105.615 291.578,113.167 298.132,120.720 304.687,128.272 311.241,135.825 317.795,143.378 324.350,150.930 330.904,158.482 337.459,166.035 343.923,173.484 335.750,179.246 327.578,185.009 319.405,190.771 311.232,196.533 303.059,202.296 294.886,208.058 286.713,213.820 278.541,219.582 270.368,225.345 262.195,231.107 254.022,236.869 249.524,240.041 239.725,242.037 229.926,244.033 220.127,246.029 210.329,248.025 200.530,250.022 190.731,252.018 180.932,254.014 171.134,256.010 161.335,258.006 151.536,260.002 141.737,261.998 131.939,263.994 123.342,265.746 126.045,275.373 128.747,285.001 131.449,294.629 134.151,304.257 136.854,313.885 139.556,323.513 142.258,333.140 144.960,342.768 147.663,352.396 148.811,356.488"/>
<path d="M 95.573,80.162 102.977,86.884 110.381,93.605 117.786,100.326 125.190,107.047 132.594,113.768 139.998,120.490 147.402,127.211 154.807,133.932 162.211,140.653 165.733,143.851 162.449,153.296 159.164,162.741 155.879,172.186 152.595,181.631 149.310,191.077 146.025,200.522 142.740,209.967 139.456,219.412 136.171,228.857 132.886,238.302 129.602,247.747 126.317,257.193 123.342,265.746 114.124,261.871 104.905,257.996 95.687,254.121 86.468,250.246 77.249,246.372 68.031,242.497 58.812,238.622 49.594,234.747 40.375,230.873 37.954,229.855"/>
</g></g></svg>